<?xml version="1.0" encoding="utf-8"?>
<!-- Generator: Adobe Illustrator 25.4.1, SVG Export Plug-In . SVG Version: 6.00 Build 0)  -->
<svg version="1.1" id="Calque_1" xmlns="http://www.w3.org/2000/svg" xmlns:xlink="http://www.w3.org/1999/xlink" x="0px" y="0px"
	 viewBox="0 0 134.2 122" style="enable-background:new 0 0 134.2 122;" xml:space="preserve">
<style type="text/css">
	.st0{fill:#E60F05;}
	.st1{fill:#FFFFFF;}
	.st2{fill:#1B1A21;}
</style>
<path class="st0" d="M9.4,0.5h114.4c4.7,0,8.4,3.8,8.4,8.4v104.3c0,4.7-3.8,8.4-8.4,8.4H9.4c-4.7,0-8.4-3.8-8.4-8.4V8.9
	C1,4.2,4.8,0.5,9.4,0.5z"/>
<path class="st1" d="M88.4,88.7c-2,0-3.7-1.7-3.7-3.7s1.7-3.7,3.7-3.7c2,0,3.8,1.7,3.8,3.7S90.4,88.7,88.4,88.7z M88.4,92.5
	c1.5,0,3-0.4,4.2-1.3c1.2-0.8,2.2-2,2.8-3.4c0.6-1.4,0.7-2.9,0.4-4.4c-0.3-1.5-1-2.8-2.1-3.9c-1.1-1.1-2.4-1.8-3.9-2.1
	c-1.5-0.3-3-0.1-4.4,0.4c-1.4,0.6-2.6,1.5-3.4,2.8c-0.8,1.2-1.3,2.7-1.3,4.2c0,1,0.2,2,0.6,2.9c0.4,0.9,0.9,1.8,1.6,2.5
	c0.7,0.7,1.5,1.3,2.5,1.6C86.4,92.3,87.4,92.5,88.4,92.5z M40.7,88.7c-2,0-3.7-1.7-3.7-3.7s1.7-3.7,3.7-3.7c2,0,3.8,1.7,3.8,3.7
	S42.7,88.7,40.7,88.7z M40.7,92.5c1.5,0,3-0.4,4.2-1.3c1.2-0.8,2.2-2,2.8-3.4c0.6-1.4,0.7-2.9,0.4-4.4c-0.3-1.5-1-2.8-2.1-3.9
	c-1.1-1.1-2.4-1.8-3.9-2.1c-1.5-0.3-3-0.1-4.4,0.4c-1.4,0.6-2.6,1.5-3.4,2.8c-0.8,1.2-1.3,2.7-1.3,4.2c0,1,0.2,2,0.6,2.9
	c0.4,0.9,0.9,1.8,1.6,2.5c0.7,0.7,1.5,1.3,2.5,1.6C38.7,92.3,39.7,92.5,40.7,92.5z M25.6,72.1v7.3c0,1.1-0.9,0.7-0.9,2.5v1
	c0,1.2,0.7,1.9,1.8,1.9h2c0.3,0,1-0.2,1-1c0-6.2,5.1-11.3,11.1-11.3c6,0,11.3,4.8,11.3,11.3c0,0.6,0.4,0.9,0.9,0.9h23.3
	c0.6,0,1-0.4,1-1c0-5.9,4.7-11.3,11.3-11.3c6.2,0,11.2,5.1,11.2,11.3c0,0.4,0.2,1,1,1h6.6c1,0,1.9-1,1.9-1.9v-5.6
	c0-1.2-0.6-1.9-1.9-1.9h-2.2c-2,0-3-0.9-3.9-1.9c-1.6-1.8-3.5-3.2-5.7-4.2c-2.2-1-4.5-1.4-6.9-1.4l-61.2-0.1c-0.2,0-0.4,0.1-0.6,0.2
	c-0.2,0.1-0.3,0.2-0.5,0.3s-0.2,0.3-0.3,0.5c-0.1,0.2-0.2,0.4-0.2,0.6V72.1z"/>
<path class="st1" d="M30.9,41c0-0.2,0-1,0.9-1h16.9c0.6,0,1,0.4,1,0.9v15.3c0,0.3-0.2,0.9-1,0.9H31.8c-0.7,0-0.9-0.6-0.9-1V41z
	 M54,41c0-0.1,0-0.3,0.1-0.4c0-0.1,0.1-0.2,0.2-0.3c0.1-0.1,0.2-0.2,0.3-0.2c0.1,0,0.2-0.1,0.4-0.1h16.5c0.6,0,1,0.4,1,1v15.1
	c0,0.5-0.4,1-1,1H54.9c-0.5,0-1-0.2-1-1V41z M76.8,41c0-0.6,0.2-1,1-1h3.9c9.4,0,15.8,6.4,19.3,15.9c0.2,0.5,0.1,1.3-0.9,1.3H77.8
	c-0.6,0-1-0.6-1-1V41z M106.4,70c0.6,0,0.8-0.3,0.8-1v-8.7c0-12.2-7.4-22-20-26.8c-13.1-5.2-44.3-3.2-56.9,0.1
	c-2,0.5-4.7,1.5-4.7,5.3v20l0.1,1.9c0,0.4,0.2,0.8,0.4,1.1c0.1,0.2,0.3,0.3,0.5,0.4c0.2,0.1,0.4,0.1,0.6,0.1h61.2
	c5.3-0.1,10.5,2,14.3,5.6c0.6,0.6,1.4,1.9,2.6,1.9H106.4z"/>
</svg>
