<svg xmlns="http://www.w3.org/2000/svg" viewBox="0 0 32.02 36.84"><defs><style>.cls-1{fill:#ef6d2c;}</style></defs><g id="Livello_2" data-name="Livello 2"><g id="Livello_1-2" data-name="Livello 1"><path class="cls-1" d="M31.57,30.18a16.34,16.34,0,0,1-2.79.6,19.5,19.5,0,0,1-2.52.18,8.14,8.14,0,0,1-5.18-1.42,5.09,5.09,0,0,1-1.78-4.26V14.39a.34.34,0,0,1,.09-.22.46.46,0,0,0,.14.09c3.84,1.11,7.69,2.19,11.54,3.29.39.11.53,0,.52-.38,0-.76,0-1.51,0-2.27a3,3,0,0,0-1.69-2.75C26.7,10.45,22.6,8.78,19.3,7.1v-6A1.13,1.13,0,0,0,17.52.21l-4.75,3.3a1,1,0,0,0-.43.81V7.08C9,8.76,4.91,10.44,1.7,12.15A3,3,0,0,0,0,14.9c0,.76,0,1.51,0,2.27,0,.39.13.49.53.38,3.84-1.1,7.69-2.18,11.53-3.29a.34.34,0,0,0,.12-.06.38.38,0,0,1,0,.16V27.68a7.87,7.87,0,0,0,.84,3.62,8.62,8.62,0,0,0,2.4,2.9,11.64,11.64,0,0,0,3.76,1.95,16.26,16.26,0,0,0,4.88.69h1c.49,0,1.1,0,1.82-.1s1.52-.16,2.4-.29a23.64,23.64,0,0,0,2.46-.53.36.36,0,0,0,.26-.34V30.51A.35.35,0,0,0,31.57,30.18Z"/></g></g></svg>