<svg xmlns="http://www.w3.org/2000/svg" viewBox="0 0 236.4 36.84"><defs><style>.cls-1{fill:#333;}</style></defs><g id="Livello_2" data-name="Livello 2"><g id="Livello_1-2" data-name="Livello 1"><path class="cls-1" d="M31.57,30.18a16.34,16.34,0,0,1-2.79.6,19.5,19.5,0,0,1-2.52.18,8.14,8.14,0,0,1-5.18-1.42,5.09,5.09,0,0,1-1.78-4.26V14.39a.34.34,0,0,1,.09-.22.46.46,0,0,0,.14.09c3.84,1.11,7.69,2.19,11.54,3.29.39.11.53,0,.52-.38,0-.76,0-1.51,0-2.27a3,3,0,0,0-1.69-2.75C26.7,10.45,22.6,8.78,19.3,7.1v-6A1.13,1.13,0,0,0,17.52.21l-4.75,3.3a1,1,0,0,0-.43.81V7.08C9,8.76,4.91,10.44,1.7,12.15A3,3,0,0,0,0,14.9c0,.76,0,1.51,0,2.27,0,.39.13.49.53.38,3.84-1.1,7.69-2.18,11.53-3.29a.34.34,0,0,0,.12-.06.38.38,0,0,1,0,.16V27.68a7.87,7.87,0,0,0,.84,3.62,8.62,8.62,0,0,0,2.4,2.9,11.64,11.64,0,0,0,3.76,1.95,16.26,16.26,0,0,0,4.88.69h1c.49,0,1.1,0,1.82-.1s1.52-.16,2.4-.29a23.64,23.64,0,0,0,2.46-.53.36.36,0,0,0,.26-.34V30.51A.35.35,0,0,0,31.57,30.18Z"/><path class="cls-1" d="M38,9.53a18.91,18.91,0,0,1,3.18-1.17,34.5,34.5,0,0,1,3.7-.84c1.28-.23,2.56-.41,3.86-.53s2.51-.17,3.66-.17a28.38,28.38,0,0,1,6.84.79A18.35,18.35,0,0,1,64.78,10a12.07,12.07,0,0,1,3.76,3.84,9.9,9.9,0,0,1,1.38,5.24v16.8H62.56V32a8.1,8.1,0,0,1-2.42,1.62,25.61,25.61,0,0,1-4,1.47A40,40,0,0,1,51.3,36.2a32.75,32.75,0,0,1-5.18.41,23,23,0,0,1-4.22-.37A11.6,11.6,0,0,1,38.34,35a7.18,7.18,0,0,1-2.48-2.32,6.75,6.75,0,0,1-1-3.52,7.9,7.9,0,0,1,1.5-5.3A11,11,0,0,1,41,20.49a27.93,27.93,0,0,1,7.32-1.73,81.67,81.67,0,0,1,9.54-.5h4.68A3.27,3.27,0,0,0,61.46,16a7.4,7.4,0,0,0-2.5-1.5,14.7,14.7,0,0,0-3.44-.82,29.79,29.79,0,0,0-3.92-.25,24.88,24.88,0,0,0-2.94.2q-1.62.21-3.42.57c-1.2.23-2.42.53-3.66.88A35.69,35.69,0,0,0,38,16.26ZM62.52,24h-8.7a48.44,48.44,0,0,0-5.92.37,13.7,13.7,0,0,0-4.14,1.09A2.75,2.75,0,0,0,42,27.66,2,2,0,0,0,42.32,29a2.46,2.46,0,0,0,1.06.88,7,7,0,0,0,1.66.48,13.82,13.82,0,0,0,2.12.15,26.73,26.73,0,0,0,4.6-.42A42.16,42.16,0,0,0,56.46,29a31.24,31.24,0,0,0,3.88-1.38,6.46,6.46,0,0,0,2.18-1.38Z"/><path class="cls-1" d="M81.64,35.86H74.48V.61h7.16V10.3a15.35,15.35,0,0,1,4.42-2.2,19.64,19.64,0,0,1,6.14-.84,31.53,31.53,0,0,1,8.86,1.08,17.16,17.16,0,0,1,6.1,3A11.7,11.7,0,0,1,110.68,16a15.38,15.38,0,0,1,1.12,6,16.09,16.09,0,0,1-1.06,5.94,11.6,11.6,0,0,1-3.36,4.64,16.11,16.11,0,0,1-5.94,3,31,31,0,0,1-8.84,1.08,17.91,17.91,0,0,1-6.34-1A16.77,16.77,0,0,1,81.64,33Zm0-13.92A7.65,7.65,0,0,0,84.28,28c1.76,1.51,4.41,2.28,8,2.28q6.24,0,9.38-2.27a7.13,7.13,0,0,0,3.14-6.09,7.19,7.19,0,0,0-3-6.06c-2-1.51-5-2.27-9.14-2.27q-5.36,0-8.18,2.27A7.35,7.35,0,0,0,81.64,21.94Z"/><path class="cls-1" d="M115.08.38h7.16v5.4h-7.16Zm.08,7.32h6.92V35.9h-6.92Z"/><path class="cls-1" d="M126.88,35.9V7.82h7.24v3.67a13.77,13.77,0,0,1,3.62-2.67,17.35,17.35,0,0,1,3.54-1.34A14,14,0,0,1,144.36,7c.93,0,1.68,0,2.24,0a19.46,19.46,0,0,1,5.26.72,15.26,15.26,0,0,1,4.62,2.12,11.2,11.2,0,0,1,3.28,3.44A8.87,8.87,0,0,1,161,17.94v18h-7.52V19.45a4.94,4.94,0,0,0-.8-2.77,7.38,7.38,0,0,0-2.06-2.07,10.37,10.37,0,0,0-2.84-1.29,11.27,11.27,0,0,0-3.18-.46,13.61,13.61,0,0,0-2.86.32,14.56,14.56,0,0,0-3,1,11,11,0,0,0-2.68,1.64,7.66,7.66,0,0,0-1.94,2.32V35.9Z"/><path class="cls-1" d="M167.84,9.53A18.91,18.91,0,0,1,171,8.36a34.5,34.5,0,0,1,3.7-.84c1.28-.23,2.56-.41,3.86-.53s2.51-.17,3.66-.17a28.38,28.38,0,0,1,6.84.79A18.35,18.35,0,0,1,194.66,10a12.07,12.07,0,0,1,3.76,3.84,9.9,9.9,0,0,1,1.38,5.24v16.8h-7.36V32A8.1,8.1,0,0,1,190,33.64a26,26,0,0,1-4,1.47,40.41,40.41,0,0,1-4.88,1.09,32.75,32.75,0,0,1-5.18.41,23,23,0,0,1-4.22-.37A11.6,11.6,0,0,1,168.22,35a7.18,7.18,0,0,1-2.48-2.32,6.75,6.75,0,0,1-1-3.52,7.9,7.9,0,0,1,1.5-5.3,10.94,10.94,0,0,1,4.64-3.35,27.93,27.93,0,0,1,7.32-1.73,81.43,81.43,0,0,1,9.54-.5h4.68A3.31,3.31,0,0,0,191.34,16a7.4,7.4,0,0,0-2.5-1.5,14.7,14.7,0,0,0-3.44-.82,29.79,29.79,0,0,0-3.92-.25,24.88,24.88,0,0,0-2.94.2q-1.62.21-3.42.57c-1.2.23-2.42.53-3.66.88a35.69,35.69,0,0,0-3.62,1.2ZM192.4,24h-8.7a48.44,48.44,0,0,0-5.92.37,13.7,13.7,0,0,0-4.14,1.09,2.75,2.75,0,0,0-1.72,2.21A2,2,0,0,0,172.2,29a2.46,2.46,0,0,0,1.06.88,6.81,6.81,0,0,0,1.66.48,13.72,13.72,0,0,0,2.12.15,26.73,26.73,0,0,0,4.6-.42,42.16,42.16,0,0,0,4.7-1.05,31.24,31.24,0,0,0,3.88-1.38,6.46,6.46,0,0,0,2.18-1.38Z"/><path class="cls-1" d="M198.2,7.7H207l10.24,19.16L227.56,7.7h8.84L220,35.9h-5.32Z"/></g></g></svg>