<svg xmlns="http://www.w3.org/2000/svg" viewBox="0 0 121.78 36.88"><g id="Livello_2" data-name="Livello 2"><g id="Livello_1-2" data-name="Livello 1"><path d="M31.57,30.18a16.34,16.34,0,0,1-2.79.6,19.5,19.5,0,0,1-2.52.18,8.14,8.14,0,0,1-5.18-1.42,5.09,5.09,0,0,1-1.78-4.26V14.39a.34.34,0,0,1,.09-.22.46.46,0,0,0,.14.09c3.84,1.11,7.69,2.19,11.54,3.29.39.11.53,0,.52-.38,0-.76,0-1.51,0-2.27a3,3,0,0,0-1.69-2.75C26.7,10.45,22.6,8.78,19.3,7.1v-6A1.13,1.13,0,0,0,17.52.21l-4.75,3.3a1,1,0,0,0-.43.81V7.08C9,8.76,4.91,10.44,1.7,12.15A3,3,0,0,0,0,14.9c0,.76,0,1.51,0,2.27,0,.39.13.49.53.38,3.84-1.1,7.69-2.18,11.53-3.29a.34.34,0,0,0,.12-.06.38.38,0,0,1,0,.16V27.68a7.87,7.87,0,0,0,.84,3.62,8.62,8.62,0,0,0,2.4,2.9,11.64,11.64,0,0,0,3.76,1.95,16.26,16.26,0,0,0,4.88.69h1c.49,0,1.1,0,1.82-.1s1.52-.16,2.4-.29a23.64,23.64,0,0,0,2.46-.53.36.36,0,0,0,.26-.34V30.51A.35.35,0,0,0,31.57,30.18Z"/><path d="M64.32,10.24a18.34,18.34,0,0,0-5.58-2.36,28.25,28.25,0,0,0-6.84-.8c-1.15,0-2.37.07-3.66.18s-2.58.3-3.86.52-2.51.51-3.7.84A19.81,19.81,0,0,0,37.5,9.8v6.73c1.17-.46,2.38-.86,3.62-1.21s2.46-.64,3.66-.87,2.34-.43,3.42-.57a24.88,24.88,0,0,1,2.94-.2,31.62,31.62,0,0,1,3.92.24,15.09,15.09,0,0,1,3.44.82,7.63,7.63,0,0,1,2.5,1.5,3.31,3.31,0,0,1,1.06,2.29H57.38a81.67,81.67,0,0,0-9.54.5,27.93,27.93,0,0,0-7.32,1.73,10.92,10.92,0,0,0-4.64,3.35,7.88,7.88,0,0,0-1.5,5.3,6.72,6.72,0,0,0,1,3.51,7.08,7.08,0,0,0,2.48,2.32,11.19,11.19,0,0,0,3.56,1.26,22.23,22.23,0,0,0,4.22.38,32.69,32.69,0,0,0,5.18-.42,40,40,0,0,0,4.88-1.08,25.23,25.23,0,0,0,4-1.47,7.91,7.91,0,0,0,2.42-1.63v3.84h7.36V19.32a10,10,0,0,0-1.38-5.24A12.07,12.07,0,0,0,64.32,10.24ZM62.06,26.53a6.36,6.36,0,0,1-2.18,1.38A29.76,29.76,0,0,1,56,29.28a40,40,0,0,1-4.7,1.06,27.67,27.67,0,0,1-4.6.42,13.82,13.82,0,0,1-2.12-.15,6.51,6.51,0,0,1-1.66-.49,2.33,2.33,0,0,1-1.06-.88,2,2,0,0,1-.28-1.32,2.76,2.76,0,0,1,1.72-2.2,14,14,0,0,1,4.14-1.1,50.69,50.69,0,0,1,5.92-.36l7,0h1.68Z"/><path d="M106.7,11.62a17.15,17.15,0,0,0-6.1-3,31.53,31.53,0,0,0-8.86-1.08,20,20,0,0,0-6.14.83,15.37,15.37,0,0,0-4.42,2.21V.88H74V36.12h7.16V33.28a16.52,16.52,0,0,0,4.62,2.58,17.9,17.9,0,0,0,6.34,1A31,31,0,0,0,101,35.8a16.12,16.12,0,0,0,5.94-3,11.51,11.51,0,0,0,3.36-4.63,16.14,16.14,0,0,0,1.06-5.95,15.33,15.33,0,0,0-1.12-5.94A11.73,11.73,0,0,0,106.7,11.62ZM101.16,28.3Q98,30.57,91.78,30.57c-3.55,0-6.2-.77-8-2.29a7.62,7.62,0,0,1-2.64-6.08A7.34,7.34,0,0,1,84,16.15q2.82-2.26,8.18-2.27c4.11,0,7.15.76,9.14,2.27a7.19,7.19,0,0,1,3,6.05A7.13,7.13,0,0,1,101.16,28.3Z"/><rect x="114.7" y="7.96" width="6.92" height="28.2"/><rect x="114.62" y="0.65" width="7.16" height="5.4"/></g></g></svg>